<svg xmlns="http://www.w3.org/2000/svg" data-bbox="31 21 549.2 237.992" viewBox="0 0 619 296" height="394.667" width="825.333" data-type="shape">
    <g>
        <path d="M135.4 24.2c-5 6-6.9 11.5-6.9 20.3 0 9.1 1.5 12.6 7.1 16.4l3.4 2.4 3.9-2.6c9.8-6.5 9.4-26.2-.7-37-1.4-1.5-2.9-2.7-3.3-2.7-.4 0-2 1.5-3.5 3.2z" fill="#a0a7b2"/>
        <path d="M104.4 30.2c-2.2 4.2-2.1 13.6.2 18.3 1.8 3.9 6.3 6.8 9.7 6.3 5.5-.8 6.2-12.9 1.1-19.9-1.6-2.2-4.3-5-6.1-6l-3.2-2-1.7 3.3z" fill="#a0a7b2"/>
        <path d="M167.4 29.9c-3.7 2.3-8.4 11.1-8.4 15.8 0 4.6 2.6 9.3 5.1 9.3 3.3 0 7.8-2.8 9.4-6.1 2.3-4.4 2.9-11.7 1.3-16.4-1.5-4.7-3.2-5.2-7.4-2.6z" fill="#a0a7b2"/>
        <path d="M81.4 47.1c-1.2 1.9-.8 13 .6 16.4C85 71.2 91.9 77 98.3 77c3.1 0 3.9-.4 4.7-2.6 1.4-3.7 1.2-11.1-.4-14.3-1.5-2.9-9-10.2-12.2-11.9-3.6-1.8-8.2-2.4-9-1.1z" fill="#a0a7b2"/>
        <path d="M188.5 48.4c-5.2 2.4-11.9 8.9-13.5 13.2-1.3 3.4-1.3 8.4.1 12.3.9 2.5 1.6 3.1 4 3.1 4.4 0 10.1-2.8 12.9-6.2 4.5-5.8 7.1-16.3 5.4-22.6-.8-2.8-2.6-2.8-8.9.2z" fill="#a0a7b2"/>
        <path d="M58 67.1c0 3.8 3 9.9 6.5 13.5 4.3 4.2 8 5.6 12.8 4.7 2.4-.5 2.7-.9 2.7-4.9C80 72.6 71.9 66 62.4 66c-2.6 0-4.4.5-4.4 1.1z" fill="#a0a7b2"/>
        <path d="M206.9 68c-5.8 3-8.9 7.4-8.9 12.5 0 3.6.4 4.4 2.3 4.8 7.9 2 17.4-5.6 19.2-15.6l.7-3.7h-4.8c-2.8.1-6.5.9-8.5 2z" fill="#a0a7b2"/>
        <path d="M116.7 70.7c-6.2 12-.7 28.2 10.4 30.8 2.3.6 3 .1 5-3.2 4.5-7.2 2-17.9-5.8-25.5-5.4-5.1-7.8-5.6-9.6-2.1z" fill="#a0a7b2"/>
        <path d="M151.7 73.2c-5.7 5.7-7.7 10.4-7.7 18.1 0 6.3 3.7 10.9 7.9 9.7 7.5-2.1 11-7.4 11.9-17.5.5-7-2.4-15.5-5.3-15.5-.9 0-4 2.4-6.8 5.2z" fill="#a0a7b2"/>
        <path d="M341.9 84.9c-2 2-2.9 3.9-2.9 6.1 0 4.5 4.7 9 9.5 9 5.1 0 8.5-3.6 8.5-9 0-8.5-9-12.1-15.1-6.1z" fill="#a0a7b2"/>
        <path d="M291.6 84.1c-9.6 2.3-19.6 9.1-24.9 17.2-5.5 8.2-7.7 16-7.7 27.1 0 11.5 2.4 19.9 7.7 27.6 9.5 13.6 25.5 19.8 45.6 17.9 11.9-1.1 11.7-1 11.7-8.6 0-5.7-.2-6.4-1.7-5.9-.9.4-4.9 1.2-8.9 1.8-22.7 3.5-39.6-11.9-38.2-35.1 1.4-23.7 21.3-35.9 46.6-28.5 2.1.6 2.2.4 2.2-5.9v-6.5l-4.4-1.1c-5.3-1.3-22.4-1.3-28 0z" fill="#a0a7b2"/>
        <path d="M89.3 90.7c-3.7 1.4 1.3 14.3 7.1 18.8 4.2 3.2 12.6 4.6 15.1 2.5 3.4-2.9.6-12.3-4.9-16.4-5.1-3.8-13.9-6.3-17.3-4.9z" fill="#a0a7b2"/>
        <path d="M178.8 91.9c-9.2 3.6-13.8 8.9-13.8 16 0 3.6 2.2 5.1 7.8 5.1 7.4 0 15.8-8.5 16.9-17.1.9-6.2-2.2-7.4-10.9-4z" fill="#a0a7b2"/>
        <path d="M51.3 92c-1.3.5-2.3 1.6-2.3 2.5 0 4.5 7 12.3 13.2 14.9 7.8 3.3 16.8 1 16.8-4.3 0-4-3.9-9.3-8.5-11.6-4.5-2.2-15.6-3.1-19.2-1.5z" fill="#a0a7b2"/>
        <path d="M210.5 92.2c-6.9 2.5-11.5 7.8-11.5 13.2 0 3.2 4.3 5.6 9.8 5.6 5.4 0 13.1-4.2 16.8-9.3 4.9-6.5 5.1-8.3 1.3-9.6-3.9-1.4-12.4-1.3-16.4.1z" fill="#a0a7b2"/>
        <path d="M396 108.6c-10.6 2.8-18.5 10.2-22.6 20.9-2.9 7.5-2.6 23.2.6 30.3 6.9 15.9 26.8 20.1 39.4 8.4l2.9-2.7-.6 6.7c-.6 8.4-3.4 13.3-9.1 15.9-5.9 2.7-16 2.5-25.4-.5-2.3-.8-2.3-.6-2 5.6l.3 6.3 6 1.3c3.4.7 9.9 1.1 15.2.9 16.2-.7 24.4-6.7 27.8-20.3 1.2-5 1.5-12.1 1.3-39l-.3-32.9-6.5-1.2c-8.7-1.6-20.3-1.5-27 .3zm16.8 10c2.1.6 2.2 1 2.2 14.8 0 14.9-1 20.5-4.2 24.6-2.7 3.5-5.7 4.9-10.1 5-9.1 0-14.1-7.1-14.1-20 0-8.4 2.3-14.6 7.2-19.3 4.6-4.4 13-6.7 19-5.1z" fill="#a0a7b2"/>
        <path d="M472.3 109c-2.4 1.2-5.4 3.5-6.7 5.1-3.1 3.6-3.6 3.6-3.6 0 0-5.6-.7-6.1-7.7-6.1h-6.6l.7 5.2c.3 2.9.6 17.7.6 32.9v27.7l7.3-.2 7.2-.1.5-23c.4-20.4.7-23.3 2.4-25.8 5.5-8.1 17.2-7.4 21.6 1.3 1.8 3.6 2 5.9 2 25.8v21.8h7.3l7.2-.1v-25c0-24.2-.1-25.1-2.3-29.8-3.6-7.2-9.6-10.9-18.6-11.4-5.8-.4-7.9 0-11.3 1.7z" fill="#a0a7b2"/>
        <path d="M547 108c-10.5 2.1-18.5 8.3-23.2 17.8-3.2 6.4-3.3 7.1-3.2 18.2 0 9.5.4 12.3 2.1 16.1 7.2 15.9 27.3 19.9 39.1 7.9 1.7-1.9 3.2-3.8 3.2-4.2 0-.5.5-.6 1-.3.6.3 1 2.3 1 4.3 0 5.4.8 5.9 7.5 5.8 5.4-.1 6-.4 5.6-2.1-.2-1.1-.6-15.5-1-32l-.6-30-6.5-1.2c-7.1-1.3-19.5-1.5-25-.3zm15.4 10.6c2.2.9 2.3 25.7.1 33.1-2.2 7.3-6.9 11.3-13.5 11.3-4.3 0-5.4-.4-8.4-3.5-8.4-8.4-7.3-26.9 2.2-35.8 4.8-4.5 14.5-7.1 19.6-5.1z" fill="#a0a7b2"/>
        <path d="m346.3 108.7-5.3.4v65l7.3-.4 7.2-.4.3-32.1c.1-19.4-.1-32.2-.7-32.2-.5 0-1.5-.1-2.3-.3-.7-.2-3.7-.2-6.5 0z" fill="#a0a7b2"/>
        <path d="M58.5 120.1c-1.6.5-4.1 1.8-5.5 2.9l-2.5 2 3.9 3.5c7 6.3 19.1 6.9 23 1.3 1.3-1.8 1.3-2.5 0-5-2.6-5-11-7.1-18.9-4.7z" fill="#a0a7b2"/>
        <path d="M205.4 120.6c-1.6.8-3.8 2.8-4.8 4.4-1.7 3-1.7 3 .9 5.4 3.5 3.3 8.5 4 14.8 2.2 5.6-1.6 11.4-6.6 10.2-8.6-1.3-2.2-8.9-5-13.5-5-2.5 0-5.9.7-7.6 1.6z" fill="#a0a7b2"/>
        <path d="M88 123.5c0 .8 3 5.2 6.7 9.7 3.8 4.6 8.9 11.7 11.4 15.9 11.9 19.9 16.5 49.9 12.3 80.4-3.3 24.3-3.1 29.9.9 29.3 4.9-.7 11.1-15.5 14.3-34.4 2.4-14.3 1.5-37.3-2-50.9-5.6-21.8-18.3-39.9-33.5-47.9-7.4-3.9-10.1-4.4-10.1-2.1z" fill="#a0a7b2"/>
        <path d="M181.5 124.9c-12.2 5.7-25.3 21.1-31.3 36.8-5.3 13.6-6.7 22.7-6.6 42.3 0 18.6 1.8 30.1 6.3 42.2 3.9 10.1 8.9 15.3 11.2 11.6 1.3-2.1 1.1-10.5-.8-21.9-2.5-15.7-2.3-44.5.4-56.9 3.8-17.7 11-31.9 24.7-48.3 3.1-3.8 5.6-7.3 5.6-7.8 0-1.6-3.4-.9-9.5 2z" fill="#a0a7b2"/>
        <path d="M127.6 126.7c-.6 1.4-.5 1.5.5.6.7-.7 1-1.5.7-1.8-.3-.3-.9.2-1.2 1.2z" fill="#a0a7b2"/>
        <path d="M149 126.4c0 .9.5 1.6 1 1.6.6 0 1-.4 1-.9 0-.6-.4-1.3-1-1.6-.5-.3-1 .1-1 .9z" fill="#a0a7b2"/>
        <path d="M126.1 138.6c0 1.1.3 1.4.6.6.3-.7.2-1.6-.1-1.9-.3-.4-.6.2-.5 1.3z" fill="#a0a7b2"/>
        <path d="M76 140.1c-2.6 1-9 6.7-9 8 0 .4 1.5 1.4 3.4 2.3 6.9 3.3 17.5 1.2 19.8-4 1.1-2.4 1-2.9-1.5-5-3-2.6-8.1-3.1-12.7-1.3z" fill="#a0a7b2"/>
        <path d="M189.5 141.3c-2.3 1.9-2.5 2.6-1.7 4.8 2 5.2 12.4 7.5 19.7 4.5 4.3-1.8 4.4-3 .4-6.7-5.4-5.1-14.1-6.3-18.4-2.6z" fill="#a0a7b2"/>
        <path d="M130.5 145c.4.6 1.1.8 1.6.5 1.4-.9 1.1-1.5-.7-1.5-.8 0-1.2.5-.9 1z" fill="#a0a7b2"/>
        <path d="M145.3 145.5c0 1.2.3 1.2 1.6.3.9-.7 1.8-1.4 2-1.5.2-.2-.5-.3-1.6-.3s-2 .7-2 1.5z" fill="#a0a7b2"/>
        <path d="M136.8 147.7c.6.2 1.8.2 2.5 0 .6-.3.1-.5-1.3-.5-1.4 0-1.9.2-1.2.5z" fill="#a0a7b2"/>
        <path d="M99.5 201.1c-11.2 1.6-31.9 6.1-40 8.6-16.1 5-28.5 10.3-28.5 12.2 0 1.7.6 1.6 8.7-.6 20.1-5.4 43.2-9.4 63.3-11.1 7.9-.7 8.5-.9 8.8-3.1.2-1.2.1-3.4-.2-4.7-.7-2.7-1.7-2.8-12.1-1.3z" fill="#a0a7b2"/>
        <path d="M166.8 203.2c-.8 5.4 0 6.8 4.1 6.8 16.9 0 60.1 8.2 79.9 15.1 10.5 3.7 12.1 3.7 5.5 0-18.9-10.4-45.6-18.9-73.3-23.1-16.3-2.6-15.7-2.6-16.2 1.2z" fill="#a0a7b2"/>
    </g>
</svg>