<svg xmlns="http://www.w3.org/2000/svg" data-bbox="22.999 23.183 1089.656 323.268" viewBox="0 0 1128 374" height="498.667" width="1504" data-type="shape">
    <g>
        <path d="M963.5 43.3c-35.9 17.4-42.3 20.8-44.2 23.7-2 2.9-2.3 4.5-2.3 14.1 0 7.3-.4 10.9-1.1 10.9-.6 0-13.9-5.4-29.6-12-15.6-6.6-29.7-12-31.2-12-3.9 0-7.8 3.4-9.2 7.8-.7 2.6-1 14.4-.7 36.7l.3 33 2.8 6c1.6 3.3 4 7.3 5.5 8.9 1.5 1.5 15.1 13.4 30.2 26.4 15.1 12.9 28.5 24.4 29.8 25.5l2.2 2v-43.9L890.5 139c-22.5-27.7-25.3-31.6-24-32.9 1.3-1.3 1.8-1.2 4.2 1 1.6 1.4 9.8 8.6 18.3 16 8.5 7.3 18.3 15.7 21.6 18.6l6.2 5.3 35.3-30.2c19.5-16.7 39.2-33.5 43.8-37.5 7.5-6.3 11.1-8 11.1-5.1 0 .5-15.5 19.1-34.5 41.4L938 156.1v39.4c0 21.7.2 39.5.4 39.5 1.3 0 74.6-78 76.8-81.7 4.5-7.8 4.9-13.5 4.6-71.1l-.3-53.4-3.3-2.9c-5.7-5.1-6.5-4.9-52.7 17.4z" fill="#a0a7b2"/>
        <path d="M782.4 230.9c-21.6 3.5-37.9 17.1-45.1 37.8-2.3 6.7-2.7 9.3-2.7 19.3 0 10.2.4 12.5 3 20 5.5 15.6 14.5 26.1 27.9 32.4 9.4 4.5 16.2 6 27.5 5.9 14.9-.2 29-5.4 39.5-14.7l4.9-4.3-5.3-7.1c-2.9-4-5.5-7.2-5.8-7.2-.3 0-2.1 1.4-4.1 3.1-2 1.8-7 4.8-11.1 6.8-7.2 3.4-8.1 3.6-18.1 3.6-9.6 0-11-.2-15.8-2.8-12.6-6.6-20.3-18.9-21-33.5-1-18.6 7.1-32.4 22.4-38.2 10.6-3.9 26.9-2 33.3 3.9 2.6 2.4 3.1 3.6 3.1 7.5v4.6h19v-7.8c-.1-12.1-3.8-18.2-14.6-23.6-9.5-4.8-26.4-7.3-37-5.7z" fill="#a0a7b2"/>
        <path d="M31.6 234.2c-.5 2.5-8.7 104.9-8.6 108.5 0 2.2.3 2.3 10.5 2.3 8 0 10.5-.3 10.5-1.3 0-.8 1.2-17.1 2.6-36.3 1.4-19.2 2.3-36.2 1.9-37.8-.8-4.6.3-2.6 2.9 5 1.3 3.8 6.7 16.7 12.1 28.6l9.8 21.8h17.4l9.3-20.8c5.2-11.4 10.6-24.1 12.1-28.2 2.5-6.6 2.8-7.1 2.9-4 0 1.9 1.1 18.1 2.5 36s2.5 33.5 2.5 34.7c0 2.2.3 2.3 10.6 2.3h10.7l-.6-7.8c-1.8-25.5-7.9-101.1-8.3-103-.4-2.2-.7-2.3-11.1-2l-10.7.3-11.3 26c-6.2 14.3-12 28-12.9 30.5-1 2.5-2.4 6.1-3.1 8l-1.4 3.5-3.9-10c-2.1-5.5-8.5-20.8-14.2-34l-10.4-24-10.7-.3c-10.4-.3-10.7-.2-11.1 2z" fill="#a0a7b2"/>
        <path d="M563 241.5v9.5h17v-19h-17v9.5z" fill="#a0a7b2"/>
        <path d="M685 240.4v8.6h3.1c1.7 0 3.9.5 5 1 1.8 1 1.9 2.6 1.9 45v43.9l2.4 2.8c2.4 2.8 2.5 2.8 14.8 2.8h12.3l.3-8.3.3-8.2h-3.9c-2.2 0-4.4-.6-5-1.3-.8-.9-1.2-15.4-1.4-45.5l-.3-44.1-2.3-2.3c-2.1-2.1-3.3-2.3-14.7-2.6l-12.5-.4v8.6z" fill="#a0a7b2"/>
        <path d="M182 263.6c-18.8 5.1-30.5 23-28.7 44.2 2.1 25.7 23.5 41.9 50.2 38.1 6.9-.9 18.5-5.7 23.2-9.6l2.3-1.8-4.1-6.8c-2.2-3.7-4.2-6.7-4.5-6.7-.2 0-2.1 1.1-4.2 2.5-13.6 8.9-31.4 6.8-38.4-4.5-1.5-2.5-3.1-6-3.4-7.8l-.6-3.2h27.5c30.5 0 28.7.4 28.7-6.9 0-6.3-2.1-15.3-4.8-20.9-7.1-14.6-25-21.5-43.2-16.6zm19.7 16.4c3.4 2 7.3 8.5 7.3 12 0 1.9-.6 2-17 2-14.7 0-17-.2-17-1.5 0-4 6.1-11.4 11-13.4 4.3-1.7 12.2-1.3 15.7.9z" fill="#a0a7b2"/>
        <path d="M285 263.7c-2.7 1-6.7 3.8-10.1 7.3l-5.7 5.6-.5-4c-.4-2.7-1.5-4.9-3.2-6.3-2.4-2.1-3.6-2.3-14.6-2.3H239v16.9l4.8.3 4.7.3.5 31.5.5 31.5 9.7.3 9.6.3.4-22.3c.5-25.6 1.4-29.2 8.2-36.3 5-5.2 10.9-7.2 16.2-5.5 6.7 2.2 6.9 3.1 7.2 35.2l.3 28.8h19.8l.3-22.7c.3-21.5.4-23.1 2.7-28 5.5-12.2 18.6-17.8 25.2-10.7 3.2 3.4 3.8 8.6 3.9 33.4 0 16.8.4 22.9 1.4 24.2 2.2 2.9 6.3 3.8 17.2 3.8H382v-17h-3.3c-1.8 0-3.8-.5-4.5-1.2-.8-.8-1.2-6.6-1.2-19.3 0-29.4-2.5-37-14-43.1-2.6-1.4-5.7-1.9-12-1.9-7.3 0-9.3.4-14.3 2.8-3.5 1.7-7.4 4.8-9.9 7.7l-4.2 4.9-2.8-4.9c-4-7-9.8-10.2-19.2-10.6-4.8-.3-8.5.2-11.6 1.3z" fill="#a0a7b2"/>
        <path d="M420.1 263.5c-21.5 6-34.4 25.9-31 47.5 1.3 8.6 4.5 15.3 10.3 21.7 13.6 15 40.5 18.2 58.4 6.9 12.9-8.1 20.1-22.6 18.9-38.1-1.3-17.5-11-30.3-27.6-36.6-7.4-2.8-21.5-3.5-29-1.4zm20.2 16.9c9.7 3.5 16 12.5 16.1 23.1 0 7.7-1.7 12.8-6.3 17.8-4.7 5.3-10.1 7.7-17.4 7.7-9.8 0-17.2-4.6-21.3-13.5-4.8-10.1-2.8-21.1 5.1-29.1 6.9-6.9 15.2-9 23.8-6z" fill="#a0a7b2"/>
        <path d="M626 263c-11.8 2.5-17 8.1-17 18.2v5.8h19v-2.9c0-4.2 3.2-6.1 10.3-6.1 9.6 0 14.7 4.3 14.7 12.5v3.5h-5.7c-13.5 0-28.4 4-35.6 9.5-5.9 4.5-8.7 10.4-8.7 18.1 0 14.9 11.3 24.8 28 24.7 9.5-.1 16.4-3.4 21.7-10.5l2.3-3.2v3.5c0 2.5.8 4.3 2.6 6 2.3 2.2 3.5 2.4 14 2.8l11.4.3V328h-3.4c-6.4 0-6.6-.8-6.6-23.3-.1-14.3-.5-21.3-1.4-24-3-8.2-8.3-13.4-16.8-16.4-5.1-1.9-22.4-2.6-28.8-1.3zm28 46.3c0 3.5-3.3 11.6-6 14.9-7.6 9.2-22.7 8.3-24.6-1.6-1.2-6.5 3.3-11.4 12.3-13.5 6.3-1.5 18.3-1.3 18.3.2z" fill="#a0a7b2"/>
        <path d="M869 263.4c-11.5 2.4-16.2 7.2-16.8 17.1l-.4 6.5H871v-2.9c0-4.4 3.1-6.1 11.3-6.1 6.5 0 7.1.2 10.3 3.4 1.9 1.9 3.4 4.4 3.4 5.7 0 1.3.3 3.4.6 4.6.6 2.2.4 2.3-5.4 2.3-8.7 0-22.8 2.7-29.4 5.7-10.9 4.8-16.7 14.1-15.5 24.5 1.6 13.3 12.2 22 27.1 22.1 10 0 19.2-4.4 22.6-10.9l1.4-2.5 1.1 4.3c1.5 6.4 5.1 7.9 18 7.6l10-.3.3-8.3.3-8.2h-3.8c-2.1 0-4.3-.4-4.9-.8-.8-.5-1.3-7.4-1.6-21.7-.5-22.1-1-24.7-5.6-31.8-6.3-9.6-24.7-14.1-42.2-10.3zm28 46.7c0 8.2-8.2 19.1-15.5 20.5-9.3 1.7-17.1-5.2-14.5-13.1 2-6.1 9.5-9.2 22.8-9.4 6.7-.1 7.2 0 7.2 2z" fill="#a0a7b2"/>
        <path d="M1020 263.5c-25.4 7.2-36.9 37.7-23.4 62.4 11.5 21.3 44.1 27.1 65.7 11.8l4.5-3.2-3.7-6.3c-2.1-3.4-4.1-6.5-4.3-6.8-.3-.3-2.6.8-5.2 2.4-6.3 4-12.3 5.5-20.4 5-5.4-.3-7.8-.9-11.1-3.1-4.9-3.3-9-9.1-9.8-14.1l-.6-3.6h55.2l.6-4.3c.8-5.5-1-15.8-3.9-22.2-3.3-7.3-7.9-12-15.1-15.6-7.9-3.9-19.7-4.8-28.5-2.4zm19.8 16.5c3.2 2 7.1 8.6 7.2 12.2 0 1.7-1.5 1.8-17.6 1.8h-17.5l.6-2.3c1.4-4.5 4.7-8.7 8.8-11.2 5.4-3.2 13.6-3.4 18.5-.5z" fill="#a0a7b2"/>
        <path d="M527.4 264.9c-4.9 2.2-10.6 7.8-13.3 12.9l-2 3.7-.1-4.6c0-6.3-1.6-10.4-4.6-11.8-1.4-.6-7.4-1.1-13.4-1.1h-11v16.9l4.3.3 4.2.3.5 31.5.5 31.5 9.6.3 9.7.3.4-20.8c.4-16 .9-21.9 2.2-25.4 3.6-9.8 11.8-15.9 21.4-15.9h5.2v-20h-4.7c-2.7 0-6.6.9-8.9 1.9z" fill="#a0a7b2"/>
        <path d="M974 264.6c-5.7 2.5-9.9 6.3-13.1 12-1.7 3-3.2 5.4-3.4 5.4-.2 0-.1-1.5.2-3.3.7-4.5-1.3-11.3-4-13.2-1.4-1-4.4-1.5-8.9-1.5H938v81h19.8l.5-21.3c.5-23.5 1.1-26.4 6.6-32.9 4.4-5.1 10.1-7.7 16.9-7.8h5.2v-20h-4.7c-2.7.1-6.4.8-8.3 1.6z" fill="#a0a7b2"/>
        <path d="M552 272.5v8.5h3.8c2.1 0 4.3.5 5 1.2.9.9 1.2 8.7 1.2 28.9v27.8l2.4 2.8c2.4 2.8 2.5 2.8 14.8 2.8h12.3l.3-8.3.3-8.2h-3.9c-2.1 0-4.3-.5-5-1.2-.9-.9-1.2-8.6-1.2-28.5 0-17.8-.4-28-1.1-29.6-1.7-3.8-5.1-4.7-17.4-4.7H552v8.5z" fill="#a0a7b2"/>
        <path d="M1077.7 326.7c-1.5 1.4-.6 2.3 2.3 2.3h3v7.5c0 6.8.2 7.5 2 7.5s2-.7 2-7.5c0-7.3.1-7.5 2.5-7.5 1.6 0 2.5-.6 2.5-1.5 0-1.2-1.4-1.5-6.8-1.5-3.8 0-7.2.3-7.5.7z" fill="#a0a7b2"/>
        <path d="M1095.6 328.2c-.3 1.3-.7 5.3-1 9-.5 6.3-.4 6.8 1.4 6.8 1.8 0 2-.7 2.1-5.8l.1-5.7 1.9 4.2c2.4 5.3 4.5 5.4 6.7.5l1.6-3.7.3 3c.6 5.5 1.3 7.5 2.8 7.5 1.2 0 1.4-1.3.9-7.8-.3-4.2-.7-8.3-1-9-.8-2.8-3.2-.9-5.5 4.5l-2.5 5.7-2-5.4c-2.3-5.9-5-7.7-5.8-3.8z" fill="#a0a7b2"/>
    </g>
</svg>