<svg xmlns="http://www.w3.org/2000/svg" data-bbox="0 0 270 70.876" viewBox="0 0 271 71" fill-rule="evenodd" clip-rule="evenodd" stroke-linejoin="round" stroke-miterlimit="1.414" data-type="ugc">
    <g>
        <path d="M0 66.87V22.203h10.72v35.859h15.187v8.808H0z" fill="#a0a7b2"/>
        <path d="M76.198 27.616c-3.11 0-3.868.828-3.868 2.678v6.56h6.749V43.9H72.33v22.704H61.86V43.9h-4.778v-7.046h4.778v-7.771c0-6.255 4.097-8.807 11.38-8.807 2.579 0 4.779.319 6.599.959v7.082c-1.063-.447-2.124-.701-3.641-.701z" fill="#a0a7b2"/>
        <path d="M111.964 46.517v-.392c0-2.482-.329-3.789-1.321-5.027-1.076-1.307-2.646-1.962-4.879-1.962-4.217 0-6.613 2.613-6.613 7.251v.13h12.813zm10.996 16.655c-4.878 3.134-10.003 4.638-15.958 4.638-12.152 0-20.004-6.796-20.004-17.308 0-6.01 1.57-9.994 5.288-13.258 3.475-3.072 7.689-4.507 13.314-4.507 4.876 0 9.506 1.305 12.235 3.527 3.887 3.135 5.621 7.64 5.621 14.63v2.023H98.987v.262c0 5.16 3.221 8.099 8.928 8.099 3.803 0 7.357-1.11 10.746-3.331l4.299 5.225z" fill="#a0a7b2"/>
        <path d="M53.305 15.806c-3.671 2.135-20.168 12.162-36.168 7.906 22.981 8.856 22.833 29.414 14.762 47.164 14.294-15.82 13.562-35.543 12.133-40.363 3.307-2.474 7.408-7.744 9.273-14.707z" fill="#a0a7b2"/>
        <path d="M39.804 8.881c0 4.904-3.937 8.879-8.798 8.879-4.859 0-8.798-3.975-8.798-8.879C22.208 3.976 26.147 0 31.006 0c4.861 0 8.798 3.976 8.798 8.881z" fill="#a0a7b2"/>
        <path d="M134.335 66.929V22.522h6.6v37.873h15.495v6.534h-22.095z" fill="#a0a7b2"/>
        <path d="M184.065 52.718c-1.759-.888-4.022-1.459-7.542-1.459-4.148 0-6.788 1.903-6.788 4.949 0 3.298 2.075 5.518 6.348 5.518 3.456 0 6.474-2.157 7.982-4.251v-4.757zm0 14.211v-3.3c-2.262 2.285-5.467 3.998-9.051 3.998-5.342 0-11.438-3.045-11.438-11.229 0-7.423 5.655-10.785 13.135-10.785 3.08 0 5.531.444 7.354 1.269v-2.475c0-3.615-2.2-5.646-6.223-5.646-3.393 0-6.032.636-8.611 2.094l-2.511-4.948c3.142-1.967 6.66-2.982 11.312-2.982 7.352 0 12.38 3.616 12.38 11.165v22.839h-6.347z" fill="#a0a7b2"/>
        <path d="M213.808 38.953c-3.08 0-5.781 2.094-7.478 4.25v14.02c1.445 1.966 4.462 4.377 7.729 4.377 4.651 0 7.165-3.552 7.165-10.594 0-8.374-2.64-12.053-7.416-12.053zm.88 28.674c-3.33 0-6.475-1.776-8.295-3.806v3.109h-6.411V24.045l6.411-3.363v16.114c2.388-2.221 5.153-3.87 8.609-3.87 7.102 0 12.695 5.202 12.695 17.89 0 11.42-6.158 16.811-13.009 16.811z" fill="#a0a7b2"/>
        <path d="M246.385 67.627c-4.464 0-9.303-1.776-12.634-4.251l2.954-4.947c3.08 2.157 6.537 3.298 9.616 3.298 4.085 0 6.034-1.331 6.034-3.679 0-2.538-2.892-3.744-7.667-5.583-7.104-2.792-9.68-5.202-9.68-10.467 0-5.964 4.651-9.072 11.25-9.072 4.148 0 8.234 1.523 11.188 3.679l-2.828 5.012c-2.704-1.903-5.407-2.855-8.547-2.855-3.144 0-4.526 1.269-4.526 3.044 0 1.651 1.131 2.856 6.096 4.823 7.352 2.854 11.124 4.885 11.124 11.165 0 7.359-5.908 9.833-12.38 9.833z" fill="#a0a7b2"/>
        <path d="M265.283 40.156h-.918v1.182h.89c.502 0 .695-.209.695-.6 0-.345-.193-.582-.667-.582zm.585 4.214-.891-1.837h-.612v1.837h-1.487v-5.453h2.447c1.28 0 2.128.489 2.128 1.781 0 .821-.389 1.321-.987 1.598l1.086 2.074h-1.684zm-.891-6.634c-2.28 0-3.99 1.613-3.99 4.034 0 2.418 1.71 4.032 3.99 4.032 2.282 0 3.992-1.614 3.992-4.032 0-2.421-1.71-4.034-3.992-4.034zm0 9.052c-2.851 0-5.019-2.169-5.019-5.018 0-2.853 2.168-5.022 5.019-5.022 2.852 0 5.023 2.169 5.023 5.022 0 2.849-2.171 5.018-5.023 5.018z" fill="#a0a7b2"/>
    </g>
</svg>
