<svg xmlns="http://www.w3.org/2000/svg" data-bbox="2 0.275 620.694 423.825" viewBox="0 0 623 424" height="565.333" width="830.667" data-type="shape">
    <g>
        <path d="M305 .9c-8.6 2.8-15.7 8.8-18.6 15.6-5.4 12.9-2.4 31.6 6.3 39.6 6.1 5.8 10.9 7.3 22.3 7.4 12.2 0 15.9-1.4 22.7-8.7 5.4-5.9 7.8-13.1 7.8-23.3 0-19.9-10.1-30.6-29.4-31.2-4.7-.1-9.7.1-11.1.6z" fill="#a0a7b2"/>
        <path d="M207.2 32.1c-10.5 5.2-15 14.1-14 27.8 1.1 15.4 12.3 25.4 28.3 25.4 11.8 0 21.2-5.6 25.1-14.9 1.6-3.9 1.9-19.2.4-24.5-1.4-5.1-7.2-11.3-13.2-14.3-4.2-2.1-6.6-2.6-12.8-2.6-6.6 0-8.6.4-13.8 3.1z" fill="#a0a7b2"/>
        <path d="M391.6 50c-11.9 4.6-18.4 17.8-15.7 31.8 4.2 21.4 33 29 48 12.7 4.7-5.2 6.7-12.6 5.6-21.9-.9-8.1-2.5-11.7-7.7-16.8-7.5-7.5-19.8-9.9-30.2-5.8z" fill="#a0a7b2"/>
        <path d="M301.7 70.4c-2.6.7-4.9 1.5-5.1 1.7-.4.4 4 32 11.9 84.4 1.8 12.6 3.7 25.8 4.1 29.3.4 3.4 1 6.5 1.5 6.8 1 .6.7 3.1 9.9-63 6.3-44.5 7.7-57.1 6.8-57.8-4.6-2.8-20.9-3.6-29.1-1.4z" fill="#a0a7b2"/>
        <path d="M286 76.1c-13.8 8.2-22.7 25.5-18.7 36.4 2 5.5 23.4 65.3 26.6 74.2 1.4 4 3 7.3 3.4 7.3.5 0 .6-2.6.3-5.8-.3-3.1-1.3-21.9-2.1-41.7-.8-19.8-2-43.8-2.5-53.4-.6-9.5-1-17.7-1-18.2 0-1.5-2.3-1-6 1.2z" fill="#a0a7b2"/>
        <path d="M335.6 91.2c-1.3 31.9-4.1 87.1-5.1 99.3-.3 3.6-.2 5.5.4 5 .5-.6 5.8-14.5 11.6-31 5.9-16.5 12.8-35.6 15.2-42.5 5.2-14.4 5.3-18.9 1.1-28-3.7-7.9-14-18-19.9-19.5l-2.6-.6-.7 17.3z" fill="#a0a7b2"/>
        <path d="M219 91.6c0 .6 2.3 4.8 22 39.9 12.9 23.2 37.1 65.7 37.7 66.4 1.9 2.4-.3-9.8-8.8-48.9-3.2-14.6-8.6-32.4-11.4-37.9-5.1-10.1-15.7-17.3-28.2-19.1-7.8-1.1-11.3-1.2-11.3-.4z" fill="#a0a7b2"/>
        <path d="M204.5 93.4c-8.8 2.8-16.5 7.9-20.5 13.6l-2.1 2.9 9.8 11.3c5.4 6.3 23.1 26.9 39.4 45.8 28.8 33.5 34.9 40.2 33.7 37-.3-.8-4-8.9-8.1-18-4.2-9.1-15.4-33.8-25-55-16.9-37.2-17.5-38.5-20.3-38.7-1.6-.1-4.7.4-6.9 1.1z" fill="#a0a7b2"/>
        <path d="M383.8 112.6c-13.3 4.3-22.5 13.6-24.9 25.4-1.5 7.4-7.5 35.9-10.5 49.7-1.3 6.2-2.4 12-2.4 13s4.5-6.1 10.1-15.7c14.4-25 41.9-73.8 41.9-74.5 0-1.2-7.1-.2-14.2 2.1z" fill="#a0a7b2"/>
        <path d="M401.6 114.1c-2.3 5.3-4.4 10-15.3 34.4-4.7 10.4-10 22.4-11.8 26.5-1.8 4.1-5.8 13-8.8 19.7-3.1 6.8-5.2 12.3-4.7 12.3.4 0 4.3-3.9 8.6-8.7 4.4-4.8 17.6-19.4 29.4-32.3 11.8-12.9 25.3-27.7 30-32.9l8.5-9.3-4.3-3.8c-5.3-4.8-15.9-9.1-23.7-9.7l-6-.5-1.9 4.3z" fill="#a0a7b2"/>
        <path d="M176 119.1c-3.1 7.4-5 17.2-5 26.9v8.6l13.8 10.6c7.5 5.9 25.6 19.9 40.1 31.3 14.5 11.3 26.5 20.4 26.7 20.2.3-.2-1.9-3.7-4.8-7.8-3-4.1-19.2-27.1-36.2-51.2-16.9-24-31.2-43.7-31.6-43.7-.4 0-1.7 2.3-3 5.1z" fill="#a0a7b2"/>
        <path d="M407.7 172.2c-18 24.8-32.6 45.2-32.4 45.5.4.3 29.6-21.9 61.6-47.1 16.7-13.2 16.1-12.1 14-23.1-1.2-6.4-5.6-16-8.6-18.7-1.8-1.6-3.1 0-34.6 43.4z" fill="#a0a7b2"/>
        <path d="m171.2 179.1.3 18 2.5 1.4c3.3 1.9 60.5 28.4 65 30.2 2.6 1-5.6-7.7-31.5-33.1-19.2-19-35.3-34.5-35.8-34.6-.4 0-.6 8.1-.5 18.1z" fill="#a0a7b2"/>
        <path d="M425.9 190.7c-13.4 13.1-28.1 27.4-32.6 31.7-4.6 4.4-8.1 8.1-7.9 8.3.3.3 18.6-8.2 54.4-25.2l12.2-5.8v-16.3c0-9-.4-16.4-.8-16.4-.5 0-11.9 10.7-25.3 23.7z" fill="#a0a7b2"/>
        <path d="m171.2 216.6.3 13.9 16 3.8c42.6 10.1 47.3 11.1 45.4 9.3-.7-.6-60.3-40.1-61.2-40.4-.4-.2-.6 5.8-.5 13.4z" fill="#a0a7b2"/>
        <path d="M447 209.2c-1.9 1.2-14.6 9.5-28.1 18.4-23.1 15.2-28.9 19.5-24.3 18 1.1-.3 6-1.5 10.9-2.6 10.5-2.4 33.8-7.7 41-9.4l5-1.2.3-12.7c.1-7-.1-12.7-.5-12.7s-2.4 1-4.3 2.2z" fill="#a0a7b2"/>
        <path d="M171 249.4V263h30.8c34.6-.1 33.4.5 15.1-7.4-5.7-2.4-17.8-7.7-26.9-11.6-9.1-3.9-17.1-7.4-17.7-7.7-1-.4-1.3 2.6-1.3 13.1z" fill="#a0a7b2"/>
        <path d="M441.5 242.6c-4.4 1.9-15.6 6.7-25 10.6-25.7 10.6-26.3 9.7 6.8 9.8H452v-12c0-9-.3-12-1.2-11.9-.7 0-4.9 1.6-9.3 3.5z" fill="#a0a7b2"/>
        <path d="M316 266.2c-8.7 2.3-16 10.9-16 18.7 0 4.8 3.4 11.4 7.5 14.6 1.9 1.4 7.3 4.2 12 6.1 9.4 4 13.5 7.7 13.5 12.6 0 4-4.5 8.4-9.6 9.4-4.6.8-16.2-.9-20.5-3.2l-3-1.5.3 5.7c.3 5.7.3 5.7 4.3 7.1 6 2.1 16.2 2.7 22.8 1.3 10.9-2.2 18.2-10.5 18.1-20.5-.2-9.4-5.2-15.2-18-20.5-4.4-1.7-9.4-4.3-11.2-5.7-2.9-2.2-3.3-2.9-3-6.6.2-3.4.9-4.5 3.7-6.4 4.1-2.8 11.3-3.1 18.7-.8 2.7.8 5 1.5 5.2 1.5.1 0 .2-2.2.2-5v-4.9l-5.2-1.6c-5.7-1.7-14.4-1.8-19.8-.3z" fill="#a0a7b2"/>
        <path d="M170 301.5V337h12v-16.5c0-9.1.3-16.5.8-16.5.4 0 6.1 7.4 12.7 16.5l12 16.4 7.7.1h7.7l3.1-10 3.1-10.1 13.2.3 13.2.3 2.7 8c1.5 4.4 3 8.8 3.3 9.7.5 1.5 1.8 1.8 6.6 1.8 4.2 0 5.9-.4 5.9-1.3 0-1.3-22.5-67.1-23.5-68.8-.6-.8-15.5-1.4-15.5-.6 0 .4-18.5 54.3-19.7 57.6-.9 2.3-1.5 1.7-10.6-9.7-5.3-6.7-9.7-12.7-9.7-13.2 0-.6 5.6-8.3 12.5-17.2 6.9-8.8 12.5-16.4 12.5-16.9s-2.9-.9-6.4-.9h-6.4l-11.7 15.7c-6.4 8.7-12.1 15.9-12.6 16.1-.5.2-.9-6.4-.9-15.7V266h-12v35.5zm77.2-9c2.5 7.4 4.3 13.7 4 14-.8.8-18.2.6-18.2-.3 0-1.6 8.5-27.2 9-27.2.4 0 2.7 6.1 5.2 13.5z" fill="#a0a7b2"/>
        <path d="M279 301.5V337h12l-.2-35.3-.3-35.2-5.7-.3-5.8-.3v35.6z" fill="#a0a7b2"/>
        <path d="M353 301.5V337h62v-30.1l3.3.3c3 .3 3.7 1.2 11.7 15l8.5 14.8h6.8c7.1 0 8-.7 5.3-4.5-2.2-3.3-15.6-25.4-15.6-25.9 0-.3 2-1.4 4.4-2.5 7.9-3.5 12.4-13.1 10.5-22.3-1.3-5.8-4.7-10.1-10.3-13.1-3.6-1.9-6.1-2.2-20.3-2.5l-16.3-.4V327h-38v-20h22v-10h-9.7c-5.4 0-10.4-.4-11.1-.8-.9-.6-1.2-3.4-1-10.3l.3-9.4 13.3-.3 13.2-.3V266h-39v35.5zm77.3-24.4c5.7 1.5 7.7 4.1 7.7 9.4 0 6.3-2.9 9.1-10.1 10-3 .4-7 .5-8.9.3l-3.5-.3-.3-8.9c-.2-4.9-.1-9.5.2-10.3.7-1.6 9.4-1.8 14.9-.2z" fill="#a0a7b2"/>
        <path d="m2.2 387.7.3 35.8h11L14 409l.5-14.5 9.5-.6c11.2-.7 17.5-3 21.2-8 6.8-9.2 6.2-19.8-1.6-27.5-5.2-5.3-10.2-6.4-28.2-6.4H2l.2 35.7zm31.1-23.3c4 2.7 5.4 8.3 3.2 12.9-2.1 4.5-6.1 6.2-15 6.2h-7l-.3-9.4c-.1-5.2 0-10.1.3-10.9.8-2.1 15-1.2 18.8 1.2z" fill="#a0a7b2"/>
        <path d="M58 388v36h30.4c26.8 0 30.5-.2 31-1.6.3-.9.6-7.9.6-15.5v-14l3.1.3c2.8.3 3.7 1.5 11.7 15.5l8.7 15.3h6.8c4.2 0 6.7-.4 6.7-1.1 0-.6-3.2-6.3-7.2-12.7-3.9-6.5-8-13.1-9-14.9l-1.9-3.1 3.5-1.2c4.3-1.4 9.9-7.5 11.6-12.5 3.1-9.2-1.3-19.9-9.8-23.8-4.2-2-6.4-2.2-20.7-2.2h-16l-.3 30.2-.2 30.3H70v-19.9l10.3-.3 10.2-.3.3-4.8.3-4.7H70v-21h25.8l.4-4.6c.2-2.5.1-4.7-.1-5-.2-.2-8.9-.4-19.3-.4H58v36zm77.2-25c9.7 2.7 10.5 14.7 1.2 18.6-1.8.8-6.3 1.4-9.9 1.4H120v-21h5.8c3.1 0 7.4.5 9.4 1z" fill="#a0a7b2"/>
        <path d="m166.2 387.7.3 35.8h11l.5-29c.3-16 .8-28.1 1.2-27 .7 1.9 9.6 36 12.4 47.9.8 3.3 2 6.6 2.6 7.3 1.4 1.7 10.4 1.7 11.5 0 .4-.6 4-13.6 8-28.7l7.2-27.5v27.2c.1 14.9.4 27.8.7 28.7.5 1.2 2 1.6 6 1.6 3 0 5.4-.5 5.4-1 0-.6 0-16.6.1-35.8v-34.7h-20.6l-6 24.2c-3.3 13.4-6.3 24.3-6.6 24.3-.4 0-2.3-7.1-4.4-15.8-2-8.6-4.6-19.5-5.8-24.2l-2.2-8.5-10.8-.3-10.7-.3.2 35.8z" fill="#a0a7b2"/>
        <path d="M263.7 354.7c-.8 1.5-2.7 6.6-4.2 11.3-1.5 4.7-6.6 19.3-11.2 32.4-4.8 13.9-8 24.3-7.5 24.8s3.1.8 5.8.6l4.9-.3 3.4-10.2 3.3-10.3h26.3l3.5 10.2 3.5 10.3 5.4.3c3 .2 5.8-.1 6.2-.5.8-.8-16-51.3-21.9-66.3l-1.8-4.5-7.1-.3c-7-.3-7.2-.2-8.6 2.5zm16.6 37.5c-.6 1.1-17.1 1-17.7 0-.5-.9 3.8-15.7 7-24.2l1.7-4.5 4.7 14c2.6 7.7 4.5 14.3 4.3 14.7z" fill="#a0a7b2"/>
        <path d="m310.2 387.7.3 35.8h10l.3-25.7c.1-14.2.6-25.8 1-25.8s6 10.3 12.6 22.9c16.8 32.5 14.1 29.2 23.4 28.9l7.7-.3.3-35.8.2-35.7h-12v26.7c0 15.7-.4 26.3-.9 25.8-.5-.6-6.8-12.5-13.9-26.5l-13.1-25.5-8.1-.3-8-.3.2 35.8z" fill="#a0a7b2"/>
        <path d="M379 388v36l30.3-.2 30.2-.3.5-26.5.5-26.5 8.7 17c4.8 9.3 10.9 21.3 13.6 26.5l5 9.5 8.1.3 8.1.3.2-30.3.3-30.3 10.7-.3 10.8-.3.2 30.3.3 30.3h11l.5-30 .5-30 10.3-.3 10.2-.3V352h-66v26.5c0 15.8-.4 26.5-.9 26.5s-6.2-10.4-12.6-23c-16.7-33.3-13.7-29.4-23.3-29.8l-8.2-.3V413h-37v-20h21v-9.9l-10.2-.3-10.3-.3-.3-10.3-.3-10.2H417v-10h-38v36z" fill="#a0a7b2"/>
        <path d="M545.7 352.7c-1 .9-.8 68.6.1 70.1.7.9 5.5 1.2 20.8 1l19.9-.3.3-5.2.3-5.3H558v-19.9l10.3-.3 10.2-.3.3-4.8.3-4.7H558v-21h26v-10h-18.8c-10.4 0-19.2.3-19.5.7z" fill="#a0a7b2"/>
        <path d="M604.3 394.1c-7.2 1.5-11.3 6.8-11.3 14.6 0 6.8 3.6 11.4 10.8 14 6.2 2.3 13.9-1.3 17.3-8 5.6-11-4.4-23.3-16.8-20.6zm11.3 5c3.6 3.4 4.8 8.5 3.2 13.3-1.8 5.3-5.8 8.1-11.5 8.1-3.9 0-4.9-.5-7.9-3.7-1.9-2.1-3.4-4.8-3.5-6-.3-6.8 1.5-10.8 6-13.4 3.7-2 10.6-1.2 13.7 1.7z" fill="#a0a7b2"/>
        <path d="M602 408.6c0 6.4.3 8.5 1.3 8.2.6-.3 1.3-1.8 1.5-3.4.6-4.7 1.9-4.9 4.7-.5 1.5 2.2 3.2 4.1 3.6 4.1 1.3 0 1.1-.8-.8-4.2-1.7-2.8-1.7-3 0-3.9 2-1.1 2.3-5.9.5-7.7-.7-.7-3.4-1.2-6-1.2H602v8.6zm9.5-4.1c0 1.5-.8 2.1-3.2 2.3-3 .3-3.3.1-3.3-2.3s.3-2.6 3.3-2.3c2.4.2 3.2.8 3.2 2.3z" fill="#a0a7b2"/>
    </g>
</svg>