<svg xmlns="http://www.w3.org/2000/svg" data-bbox="0 0 450 136.5" viewBox="0 0 450 137" fill-rule="evenodd" clip-rule="evenodd" stroke-linejoin="round" stroke-miterlimit="1.414" data-type="ugc">
    <g>
        <path d="M86.55 87.375c-2.1 8.175-4.2 16.575-6.225 25.2 9.075 5.85 18 11.7 26.925 16.65-6.825-12.975-13.65-27.15-20.7-41.85" fill="#d4d4d4" fill-rule="nonzero"/>
        <path d="M86.55 87.375c8.1 5.775 16.05 11.7 23.925 17.1-1.05 7.95-2.175 16.2-3.225 24.675-6.825-12.9-13.65-27.075-20.7-41.775" fill-rule="nonzero" fill="#a0a7b2"/>
        <path d="M86.55 87.375c-2.1 8.175-4.2 16.575-6.225 25.2-9.075-5.85-18.375-11.85-27.675-17.1 11.175-3.675 22.575-6.525 33.9-8.1" fill-rule="nonzero" fill="#a0a7b2"/>
        <path d="M86.55 87.375c-8.1-5.775-16.425-11.55-24.825-16.65-3.075 8.1-6.075 16.425-9.075 24.75 11.175-3.675 22.575-6.525 33.9-8.1" fill="#d4d4d4" fill-rule="nonzero"/>
        <path d="M95.775 53.925c-1.35 4.65-2.775 9.525-4.2 14.475 7.275 5.85 14.4 11.85 21.3 17.625-5.55-10.05-11.25-20.925-17.1-32.1" fill="#d4d4d4" fill-rule="nonzero"/>
        <path d="M95.775 53.925c6.525 5.925 12.9 12 19.05 18-.6 4.575-1.275 9.225-1.95 14.1-5.55-10.05-11.25-20.925-17.1-32.1" fill-rule="nonzero" fill="#a0a7b2"/>
        <path d="M86.55 87.375c1.65-6.525 3.375-12.825 5.1-18.975 7.275 5.85 14.4 11.85 21.3 17.625-8.55-.45-17.4 0-26.4 1.35" fill-rule="nonzero" fill="#a0a7b2"/>
        <path d="M86.55 87.375c8.1 5.775 16.05 11.7 23.925 17.1.825-6.3 1.65-12.45 2.475-18.45-8.55-.45-17.4 0-26.4 1.35" fill="#d4d4d4" fill-rule="nonzero"/>
        <path d="M95.775 53.925c1.125-3.9 2.325-7.65 3.45-11.25 5.925 5.925 11.625 12.15 17.1 18.225-6.45-3.15-13.35-5.475-20.55-6.975" fill="#b3b2b1" fill-rule="nonzero"/>
        <path d="M95.775 53.925c6.525 5.925 12.9 12 19.05 18 .525-3.75.975-7.5 1.5-11.025-6.45-3.15-13.35-5.475-20.55-6.975" fill="#ededed" fill-rule="nonzero"/>
        <path d="M95.775 53.925c1.125-3.9 2.325-7.65 3.45-11.25-5.925-5.925-12.075-11.7-18.375-17.1 5.1 9.525 10.125 19.05 14.925 28.35" fill="#ededed" fill-rule="nonzero"/>
        <path d="M95.775 53.925a331.833 331.833 0 0 0-20.25-16.95c1.8-3.9 3.525-7.725 5.325-11.4 5.1 9.525 10.125 19.05 14.925 28.35" fill="#d4d4d4" fill-rule="nonzero"/>
        <path d="M36.525 57.45C32.55 65.7 28.8 73.95 25.05 82.125c9 3.3 18.3 7.95 27.6 13.275-5.325-13.05-10.725-25.8-16.125-37.95" fill="#d4d4d4" fill-rule="nonzero"/>
        <path d="M36.525 57.45c8.325 3.525 16.8 8.1 25.2 13.2-3.075 8.1-6.075 16.425-9.075 24.75-5.325-13.05-10.725-25.8-16.125-37.95" fill-rule="nonzero" fill="#a0a7b2"/>
        <path d="M36.525 57.45C32.55 65.7 28.8 73.95 25.05 82.125 16.125 78.825 7.5 76.8.075 76.875c10.65-8.625 23.1-15.15 36.45-19.425" fill-rule="nonzero" fill="#a0a7b2"/>
        <path d="M36.525 57.45c-8.25-3.525-16.35-5.925-23.775-6.9C8.325 59.4 4.125 68.25 0 76.8c10.725-8.55 23.175-15.075 36.525-19.35" fill="#d4d4d4" fill-rule="nonzero"/>
        <path d="M54.45 22.8a473.84 473.84 0 0 0-8.25 15.15c-7.65-3.825-15.3-6.75-22.5-8.475 9.675-4.05 20.1-6.3 30.75-6.675" fill-rule="nonzero" fill="#a0a7b2"/>
        <path d="M54.45 22.8c-7.05-4.125-14.175-7.5-21.075-9.825C30.075 18.3 26.85 23.85 23.7 29.55c9.675-4.125 20.1-6.375 30.75-6.75" fill="#d4d4d4" fill-rule="nonzero"/>
        <path d="M36.525 57.45c3.15-6.525 6.375-13.05 9.675-19.425-7.65-3.825-15.3-6.75-22.5-8.475 4.2 8.775 8.475 18.15 12.825 27.9" fill="#d4d4d4" fill-rule="nonzero"/>
        <path d="M36.525 57.45c-8.25-3.525-16.35-5.925-23.775-6.9 3.525-7.05 7.2-14.1 11.025-21.075 4.125 8.85 8.4 18.225 12.75 27.975" fill-rule="nonzero" fill="#a0a7b2"/>
        <path d="M54.45 22.8a353.635 353.635 0 0 1 7.125-11.85c6.525 4.35 13.05 9.3 19.35 14.625C72.225 23.4 63.3 22.5 54.45 22.8" fill="#ededed" fill-rule="nonzero"/>
        <path d="M54.45 22.8c7.125 4.125 14.175 8.925 21.075 14.175 1.8-3.9 3.525-7.725 5.325-11.4C72.225 23.4 63.3 22.5 54.45 22.8" fill="#b3b2b1" fill-rule="nonzero"/>
        <path d="M54.45 22.8a353.635 353.635 0 0 1 7.125-11.85C55.05 6.6 48.45 2.925 41.925 0c4.2 7.35 8.4 15 12.525 22.8" fill="#b8b8b8" fill-rule="nonzero"/>
        <path d="M54.45 22.8c-7.05-4.125-14.175-7.5-21.075-9.825A430.819 430.819 0 0 1 41.85 0c4.275 7.35 8.475 15 12.6 22.8" fill-rule="nonzero" fill="#a0a7b2"/>
        <path d="M163.5 136.5c-17.475 0-29.7-13.275-29.7-29.4s12.375-29.55 29.85-29.55 29.7 13.275 29.7 29.4-12.375 29.55-29.85 29.55m0-49.65c-11.325 0-19.2 9-19.2 20.175s8.025 20.325 19.35 20.325c11.325 0 19.2-9 19.2-20.175S174.825 86.85 163.5 86.85" fill-rule="nonzero" fill="#a0a7b2"/>
        <path d="M223.95 117.225h-11.325v18.3h-9.975V78.6h22.425c13.275 0 21.6 7.5 21.6 19.125.075 12.825-10.2 19.5-22.725 19.5m.3-29.475h-11.625v20.475h11.625c7.575 0 12.3-4.125 12.3-10.275 0-6.75-4.8-10.2-12.3-10.2" fill-rule="nonzero" fill="#a0a7b2"/>
        <path d="M279.45 135.525h-10.125V87.9h-18v-9.3h46.2v9.3H279.45v47.625z" fill-rule="nonzero" fill="#a0a7b2"/>
        <path d="M355.05 110.925c0 17.025-9.6 25.575-24.45 25.575-14.775 0-24.225-8.55-24.225-25.05V78.675h9.975v32.4c0 10.575 5.475 16.275 14.4 16.275 8.85 0 14.325-5.4 14.325-15.825V78.75h9.975v32.175z" fill-rule="nonzero" fill="#a0a7b2"/>
        <path d="M393.975 121.575h-.3l-17.85-26.7v40.65H366V78.6h10.65l17.325 26.925L411.3 78.6h10.65v56.925h-9.975v-40.8l-18 26.85z" fill-rule="nonzero" fill="#a0a7b2"/>
        <path d="M432.9 85.35c0-4.725 3.75-8.625 8.55-8.625 4.8 0 8.55 3.9 8.55 8.55v.075c0 4.65-3.75 8.625-8.55 8.625-4.8-.075-8.55-3.975-8.55-8.625m16.125 0c0-4.2-3.225-7.65-7.575-7.65-4.275 0-7.575 3.525-7.575 7.65v.075c0 4.2 3.225 7.575 7.575 7.575 4.275 0 7.575-3.525 7.575-7.65m-10.8-4.5h3.825c1.8 0 3.225.9 3.225 2.625 0 1.425-.9 2.25-2.1 2.625l2.4 3.3h-1.725l-2.175-3.15h-2.025v3.15h-1.425v-8.55zm3.675 4.35c1.2 0 1.95-.675 1.95-1.575 0-1.05-.75-1.5-1.95-1.5h-2.325V85.2h2.325z" fill="#959596" fill-rule="nonzero"/>
    </g>
</svg>